<svg width="24" height="24" viewBox="0 0 24 24" fill="none" xmlns="http://www.w3.org/2000/svg">
<path fill-rule="evenodd" clip-rule="evenodd" d="M0.00217907 8.90814C-0.0354527 9.47448 0.420445 9.94985 0.988039 9.94985C1.52548 9.94985 1.96476 9.52509 2.00129 8.98889C2.07189 7.95261 2.18716 7.07407 2.35355 6.32536C2.65495 4.96924 3.09685 4.16473 3.63081 3.63079C4.16477 3.09685 4.96931 2.65494 6.32547 2.35355C7.07422 2.18715 7.95281 2.07189 8.98914 2.00129C9.52534 1.96476 9.95011 1.52548 9.95011 0.988035C9.95011 0.420442 9.47474 -0.0354551 8.90839 0.00217388C2.51373 0.427047 0.427072 2.51364 0.00217907 8.90814ZM0.00217355 15.0059C-0.0354567 14.4395 0.42044 13.9642 0.988033 13.9642C1.52548 13.9642 1.96476 14.3889 2.00129 14.9251C2.07189 15.9614 2.18715 16.84 2.35355 17.5887C2.65495 18.9449 3.09685 19.7494 3.63081 20.2833C4.16477 20.8173 4.96931 21.2592 6.32547 21.5606C7.07422 21.727 7.95281 21.8422 8.98914 21.9128C9.52534 21.9493 9.95011 22.3886 9.95011 22.9261C9.95011 23.4937 9.47474 23.9496 8.90839 23.9119C2.51371 23.4871 0.427054 21.4004 0.00217355 15.0059ZM21.9133 14.9251C21.9499 14.3889 22.3892 13.9642 22.9266 13.9642C23.4942 13.9642 23.9501 14.4395 23.9125 15.0059C23.4876 21.4004 21.4009 23.4871 15.0062 23.9119C14.4399 23.9496 13.9645 23.4937 13.9645 22.9261C13.9645 22.3886 14.3893 21.9493 14.9255 21.9128C15.9618 21.8422 16.8404 21.727 17.5892 21.5606C18.9453 21.2592 19.7499 20.8173 20.2838 20.2833C20.8178 19.7494 21.2597 18.9449 21.5611 17.5887C21.7275 16.84 21.8427 15.9614 21.9133 14.9251ZM23.9125 8.90814C23.9501 9.47448 23.4942 9.94985 22.9266 9.94985C22.3891 9.94985 21.9499 9.52509 21.9133 8.98889C21.8427 7.95261 21.7275 7.07407 21.5611 6.32536C21.2597 4.96924 20.8178 4.16473 20.2838 3.63079C19.7499 3.09685 18.9453 2.65494 17.5892 2.35355C16.8404 2.18715 15.9618 2.07189 14.9255 2.00129C14.3893 1.96476 13.9645 1.52548 13.9645 0.988034C13.9645 0.420442 14.4399 -0.0354554 15.0062 0.00217339C21.4009 0.427046 23.4876 2.51364 23.9125 8.90814ZM24.0005 11.9571L24.0005 11.9895V11.9246L24.0005 11.9571ZM11.8587 23.9999L11.9573 24L12.0559 23.9999H11.8587ZM15 11.8284C15 13.4852 13.6569 14.8284 12 14.8284C10.3431 14.8284 9 13.4852 9 11.8284C9 10.1715 10.3431 8.82837 12 8.82837C13.6569 8.82837 15 10.1715 15 11.8284ZM17 11.8284C17 14.5898 14.7614 16.8284 12 16.8284C9.23858 16.8284 7 14.5898 7 11.8284C7 9.06695 9.23858 6.82837 12 6.82837C14.7614 6.82837 17 9.06695 17 11.8284Z" fill="#6F7389"/>
</svg>
