<svg width="24" height="24" viewBox="0 0 24 24" fill="none" xmlns="http://www.w3.org/2000/svg">
<path d="M11 6C11 5.44772 11.4477 5 12 5C12.5523 5 13 5.44772 13 6V11H18C18.5523 11 19 11.4477 19 12C19 12.5523 18.5523 13 18 13H12C11.4477 13 11 12.5523 11 12V6Z" fill="#6F7389"/>
<path fill-rule="evenodd" clip-rule="evenodd" d="M12 24C2.118 24 0 21.882 0 12C0 2.11801 2.118 0 12 0C21.882 0 24 2.11801 24 12C24 21.882 21.882 24 12 24ZM2.43771 17.6101C2.13254 16.2369 2 14.4249 2 12C2 9.57513 2.13254 7.76306 2.43771 6.38992C2.73784 5.03949 3.17769 4.23926 3.70847 3.70847C4.23924 3.17767 5.03949 2.73782 6.38992 2.43771C7.76308 2.13254 9.57515 2 12 2C14.4249 2 16.2369 2.13254 17.6101 2.43771C18.9605 2.73782 19.7608 3.17767 20.2915 3.70847C20.8223 4.23926 21.2622 5.03949 21.5623 6.38992C21.8675 7.76306 22 9.57513 22 12C22 14.4249 21.8675 16.2369 21.5623 17.6101C21.2622 18.9605 20.8223 19.7607 20.2915 20.2915C19.7608 20.8223 18.9605 21.2622 17.6101 21.5623C16.2369 21.8675 14.4249 22 12 22C9.57515 22 7.76308 21.8675 6.38992 21.5623C5.03949 21.2622 4.23924 20.8223 3.70847 20.2915C3.17769 19.7607 2.73784 18.9605 2.43771 17.6101Z" fill="#6F7389"/>
</svg>
