<svg width="26" height="32" viewBox="0 0 26 32" fill="none" xmlns="http://www.w3.org/2000/svg">
<path d="M9.1 5.88759C8.38204 5.88759 7.8 6.45346 7.8 7.15148C7.8 7.84949 8.38204 8.41537 9.1 8.41537H16.9C17.618 8.41537 18.2 7.84949 18.2 7.15148C18.2 6.45346 17.618 5.88759 16.9 5.88759H9.1Z" fill="#6F7389"/>
<path fill-rule="evenodd" clip-rule="evenodd" d="M21.6615 0.832031H4.33859C0.769898 0.832031 -1.26722 4.96104 0.873999 7.85439L8.09188 17.6077C8.46666 18.1142 8.66927 18.7302 8.66927 19.3633V28.2338C8.66927 30.7146 11.5243 32.0697 13.4047 30.4816L16.2919 28.0433C16.9501 27.4873 17.3307 26.6638 17.3307 25.7955V19.3633C17.3307 18.7302 17.5333 18.1142 17.9081 17.6077L25.126 7.85439C27.2672 4.96104 25.2301 0.832031 21.6615 0.832031ZM4.33859 3.35981H21.6615C22.3197 3.35981 22.8782 3.71821 23.1907 4.35141C23.5057 4.98993 23.4804 5.74981 23.0155 6.37809L15.7976 16.1314C15.0996 17.0747 14.7307 18.2087 14.7307 19.3633V25.7955C14.7307 25.9522 14.6609 26.0724 14.5868 26.135L11.6996 28.5733C11.6758 28.5935 11.6557 28.6072 11.6394 28.6165C11.6058 28.6358 11.5878 28.6365 11.5842 28.6369C11.5662 28.6389 11.5265 28.6376 11.4726 28.612C11.4185 28.5864 11.3692 28.5448 11.3345 28.492C11.3051 28.4473 11.2693 28.3704 11.2693 28.2338V19.3633C11.2693 18.2087 10.9004 17.0747 10.2024 16.1314L2.98451 6.37809C2.51955 5.74981 2.49432 4.98993 2.80936 4.35141C3.12174 3.71821 3.68034 3.35981 4.33859 3.35981Z" fill="#6F7389"/>
</svg>
