<svg width="24" height="25" viewBox="0 0 24 25" fill="none" xmlns="http://www.w3.org/2000/svg">
<path d="M0.73517 19.5511C-0.292667 14.8438 -0.0147588 10.6615 0.221326 9.09037C0.389923 7.9684 6.34725 3.38077 9.73942 0.849601C11.1125 -0.174943 12.9796 -0.179576 14.357 0.839039C17.7777 3.36866 23.7934 7.9692 23.8674 9.09037C23.8698 9.12574 23.8722 9.16243 23.8747 9.20043C23.9842 10.8471 24.2569 14.95 23.3531 19.5511C22.8394 22.1663 21.3166 23.3469 18.2126 23.7354C17.9913 23.7631 17.7704 23.7894 17.5502 23.8142C17.2559 23.8473 17 23.6149 17 23.3174V16.2276C17 14.5635 15.6568 13.2144 14 13.2144L9.99999 13.2144C8.34314 13.2144 6.99999 14.5635 6.99999 16.2276L6.99999 23.3089C6.99999 23.607 6.74306 23.8396 6.44831 23.8054C6.25764 23.7832 6.06673 23.7599 5.87555 23.7354C2.77266 23.3388 1.3021 22.1476 0.73517 19.5511Z" fill="white"/>
<path d="M8.99999 23.5637C8.99999 23.8288 9.20506 24.0485 9.46857 24.0626C11.1525 24.153 12.8319 24.1536 14.5307 24.0644C14.7945 24.0506 15 23.8307 15 23.5654L15 16.2276C15 15.6729 14.5523 15.2232 14 15.2232L9.99999 15.2232C9.44771 15.2232 8.99999 15.6729 8.99999 16.2276L8.99999 23.5637Z" fill="white"/>
</svg>
