<svg width="28" height="28" viewBox="0 0 28 28" fill="none" xmlns="http://www.w3.org/2000/svg">
<path d="M14 0C14.5523 0 15 0.447715 15 1V3C15 3.55228 14.5523 4 14 4C13.4477 4 13 3.55228 13 3V1C13 0.447715 13.4477 0 14 0Z" fill="#131418"/>
<path fill-rule="evenodd" clip-rule="evenodd" d="M14.0001 22C7.93512 22 5.93512 20 6.00006 14C6.065 8 7.93512 6 14.0001 6C20.065 6 22.0001 8 22.0001 14C22.0001 20 20.065 22 14.0001 22ZM9.11557 18.8358C8.46781 18.188 7.96867 16.9107 7.99994 14.0216C8.03151 11.1055 8.52419 9.81278 9.17349 9.15494C9.81032 8.50972 11.0725 8 14.0001 8C16.9284 8 18.2101 8.50992 18.8556 9.1596C19.5041 9.81235 20.0001 11.0975 20.0001 14C20.0001 16.9025 19.5041 18.1876 18.8556 18.8404C18.2101 19.4901 16.9284 20 14.0001 20C11.0709 20 9.76967 19.4899 9.11557 18.8358Z" fill="#131418"/>
<path d="M15 25C15 24.4477 14.5523 24 14 24C13.4477 24 13 24.4477 13 25V27C13 27.5523 13.4477 28 14 28C14.5523 28 15 27.5523 15 27V25Z" fill="#131418"/>
<path d="M28 14C28 14.5523 27.5523 15 27 15H25C24.4477 15 24 14.5523 24 14C24 13.4477 24.4477 13 25 13H27C27.5523 13 28 13.4477 28 14Z" fill="#131418"/>
<path d="M3 15C3.55228 15 4 14.5523 4 14C4 13.4477 3.55228 13 3 13H1C0.447715 13 0 13.4477 0 14C0 14.5523 0.447715 15 1 15H3Z" fill="#131418"/>
<path d="M3.29289 3.29289C3.68342 2.90237 4.31658 2.90237 4.70711 3.29289L6.12132 4.70711C6.51184 5.09763 6.51184 5.7308 6.12132 6.12132C5.7308 6.51184 5.09763 6.51184 4.70711 6.12132L3.29289 4.70711C2.90237 4.31658 2.90237 3.68342 3.29289 3.29289Z" fill="#131418"/>
<path d="M4.70711 25.1212C4.31658 25.5117 3.68342 25.5117 3.29289 25.1212C2.90237 24.7306 2.90237 24.0975 3.29289 23.707L4.70711 22.2927C5.09763 21.9022 5.7308 21.9022 6.12132 22.2927C6.51184 22.6833 6.51184 23.3164 6.12132 23.707L4.70711 25.1212Z" fill="#131418"/>
<path d="M25.1212 3.29289C24.7306 2.90237 24.0975 2.90237 23.707 3.29289L22.2927 4.70711C21.9022 5.09763 21.9022 5.7308 22.2927 6.12132C22.6833 6.51184 23.3164 6.51184 23.707 6.12132L25.1212 4.70711C25.5117 4.31658 25.5117 3.68342 25.1212 3.29289Z" fill="#131418"/>
<path d="M23.707 25.1212C24.0975 25.5117 24.7306 25.5117 25.1212 25.1212C25.5117 24.7306 25.5117 24.0975 25.1212 23.707L23.707 22.2927C23.3164 21.9022 22.6833 21.9022 22.2927 22.2927C21.9022 22.6833 21.9022 23.3164 22.2927 23.707L23.707 25.1212Z" fill="#131418"/>
</svg>
