<svg width="24" height="30" viewBox="0 0 24 30" fill="none" xmlns="http://www.w3.org/2000/svg">
<path fill-rule="evenodd" clip-rule="evenodd" d="M13.1984 1.88896C13.1995 1.86782 13.2 1.84655 13.2 1.82514C13.2 1.1483 12.6627 0.599609 12 0.599609C11.3373 0.599609 10.8 1.1483 10.8 1.82514C10.8 1.84656 10.8005 1.86785 10.8016 1.889C6.78442 2.48059 3.00443 7.09662 3.60006 12.2468C3.90855 13.8228 2.93722 14.6578 1.92621 15.5268C0.970865 16.348 -0.0198983 17.1997 0.000303825 18.7358C0.000303825 20.8888 1.20001 22.0555 2.96196 22.6341C2.96196 22.6341 6.18887 23.8946 12.0001 23.8946C17.8114 23.8946 21.0383 22.6341 21.0383 22.6341C22.8003 22.0555 24.0003 20.8294 24 18.7358C23.9998 17.1864 23.0096 16.3345 22.0596 15.517C21.0531 14.651 20.0916 13.8237 20.4002 12.2468C20.9959 7.09649 17.2157 2.48037 13.1984 1.88896ZM5.57967 11.9528C5.80147 13.1975 5.53811 14.269 4.98545 15.1619C4.4944 15.9552 3.79733 16.5552 3.33788 16.9506L3.31452 16.9707C2.20204 17.9286 1.99343 18.2001 2.00013 18.7095L2.0003 18.7227V18.7358C2.0003 19.4163 2.17951 19.779 2.36573 20.0057C2.57455 20.2599 2.94362 20.523 3.58596 20.7339L3.63832 20.7511L3.68118 20.7679L3.68171 20.7681L3.68284 20.7685L3.6831 20.7686L3.69117 20.7716C3.70396 20.7763 3.72899 20.7854 3.7661 20.7983C3.84033 20.8239 3.96286 20.8647 4.13245 20.9156C4.47164 21.0175 4.99894 21.1603 5.70449 21.3053C7.11527 21.5953 9.23973 21.8946 12.0001 21.8946C14.7606 21.8946 16.885 21.5953 18.2958 21.3053C19.0014 21.1603 19.5287 21.0175 19.8679 20.9156C20.0374 20.8647 20.16 20.8239 20.2342 20.7983C20.2713 20.7854 20.2963 20.7763 20.3091 20.7716L20.3172 20.7686L20.3174 20.7685L20.319 20.7679L20.3191 20.7679L20.362 20.7511L20.4143 20.7339C21.0339 20.5305 21.4094 20.2608 21.6275 19.9922C21.8267 19.7469 22.0001 19.3761 22 18.7361C21.9999 18.1905 21.7673 17.9055 20.6693 16.9591L20.6463 16.9394C20.1892 16.5455 19.4945 15.9469 19.0061 15.1532C18.4564 14.2597 18.1998 13.1914 18.4206 11.9527C18.6492 9.81193 17.9182 7.75911 16.6746 6.22777C15.3964 4.65394 13.7484 3.8251 12.3374 3.8251H11.6629C10.2519 3.8251 8.60389 4.65394 7.32575 6.22777C6.08211 7.75912 5.35111 9.81196 5.57967 11.9528ZM7.84012 25.5381C7.40307 25.873 7.3145 26.5065 7.64229 26.9531C9.83755 29.9437 14.2281 29.9437 16.4233 26.9531C16.7511 26.5065 16.6626 25.873 16.2255 25.5381C15.7884 25.2032 15.1684 25.2937 14.8406 25.7402C13.4367 27.6528 10.6289 27.6528 9.22499 25.7402C8.8972 25.2937 8.27718 25.2032 7.84012 25.5381Z" fill="#131418"/>
</svg>
