<svg width="24" height="24" viewBox="0 0 24 24" fill="none" xmlns="http://www.w3.org/2000/svg">
<path fill-rule="evenodd" clip-rule="evenodd" d="M0 11.3559C0 20.1309 3.09706 22.7118 11.3559 22.7118C14.9935 22.7118 17.6298 22.2111 19.4411 20.901L22.2377 23.6976C22.6408 24.1008 23.2945 24.1008 23.6976 23.6976C24.1008 23.2944 24.1008 22.6408 23.6976 22.2376L20.8959 19.436C22.1585 17.6673 22.7118 15.065 22.7118 11.3559C22.7118 2.58089 19.6147 0 11.3559 0C3.09706 0 0 2.58089 0 11.3559ZM2.06471 11.3559C2.06471 15.6104 2.8398 17.7059 4.01405 18.8382C5.20613 19.9877 7.32119 20.6471 11.3559 20.6471C15.3906 20.6471 17.5057 19.9877 18.6978 18.8382C19.872 17.7059 20.6471 15.6104 20.6471 11.3559C20.6471 7.10141 19.872 5.00588 18.6978 3.8736C17.5057 2.72411 15.3906 2.06471 11.3559 2.06471C7.32119 2.06471 5.20613 2.72411 4.01405 3.8736C2.8398 5.00588 2.06471 7.10141 2.06471 11.3559Z" fill="#A7ABBF"/>
</svg>
