<?xml version="1.0" encoding="iso-8859-1"?>
<!-- Generator: Adobe Illustrator 19.0.0, SVG Export Plug-In . SVG Version: 6.00 Build 0)  -->
<svg version="1.1" id="Capa_1" xmlns="http://www.w3.org/2000/svg" xmlns:xlink="http://www.w3.org/1999/xlink" x="0px" y="0px"
	 viewBox="0 0 512 512" style="enable-background:new 0 0 512 512;" xml:space="preserve">
<path style="fill:#9B918B;" d="M30,165c-16.569,0-30,13.431-30,30s13.431,30,30,30h226v-60H30z"/>
<g>
	<path style="fill:#7A6C64;" d="M482,165c16.569,0,30,13.431,30,30s-13.431,30-30,30H256v-60H482z"/>
	<polygon style="fill:#7A6C64;" points="331,104.5 226,104.5 256,0 331,0 	"/>
</g>
<rect x="181" style="fill:#9B918B;" width="75" height="104.5"/>
<path style="fill:#BDB5B2;" d="M357,60H256l-30,105.5L432,135C432,93.65,398.36,60,357,60z"/>
<g>
	<path style="fill:#D6D0CD;" d="M155,60c-41.36,0-75,33.65-75,75l176,30.5V60H155z"/>
	<polygon style="fill:#D6D0CD;" points="432,165 226,195 256,135 432,135 	"/>
</g>
<polygon style="fill:#FFFFFF;" points="256,195 80,165 80,135 256,135 "/>
<path style="fill:#9B918B;" d="M432,165v272c0,41.36-33.64,75-75,75H256L156,336l100-171H432z"/>
<polygon style="fill:#BDB5B2;" points="256,165 256,512 211.12,512 80,337.44 80,165 "/>
<rect x="196" y="225.5" style="fill:#FFFFFF;" width="30" height="120.5"/>
<polygon style="fill:#FFF2A3;" points="312,336 312,366 156,426 0,366 0,336 "/>
<path style="fill:#FEDD90;" d="M0,366h312c0,31.82-9.52,62.42-27.53,88.52c-17.59,25.47-42.02,44.98-70.67,56.41l-2.68,1.07H100.88
	l-2.68-1.07c-28.65-11.43-53.08-30.94-70.67-56.41C9.52,428.42,0,397.82,0,366z"/>
<g>
</g>
<g>
</g>
<g>
</g>
<g>
</g>
<g>
</g>
<g>
</g>
<g>
</g>
<g>
</g>
<g>
</g>
<g>
</g>
<g>
</g>
<g>
</g>
<g>
</g>
<g>
</g>
<g>
</g>
</svg>
