<?xml version="1.0" encoding="iso-8859-1"?>
<!-- Generator: Adobe Illustrator 19.0.0, SVG Export Plug-In . SVG Version: 6.00 Build 0)  -->
<svg version="1.1" id="Capa_1" xmlns="http://www.w3.org/2000/svg" xmlns:xlink="http://www.w3.org/1999/xlink" x="0px" y="0px"
	 viewBox="0 0 512 512" style="enable-background:new 0 0 512 512;" xml:space="preserve">
<rect x="151" y="406" style="fill:#57555C;" width="210" height="90"/>
<rect x="256" y="406" style="fill:#3C3A41;" width="105" height="90"/>
<path style="fill:#FF6C6C;" d="M481,256v90c0,66.299-53.699,120-120,120H151c-66.301,0-120-53.701-120-120v-90H481z"/>
<path style="fill:#E63950;" d="M481,256v90c0,66.299-53.699,120-120,120H256V256H481z"/>
<path style="fill:#FE9923;" d="M254.356,256C264.665,238.288,271,217.969,271,196c0-66.275-53.725-120-120-120S31,129.725,31,196
	c0,21.969,6.335,42.288,16.644,60H254.356z"/>
<path style="fill:#FCBF29;" d="M217.643,256C232.01,240.052,241,219.156,241,196c0-49.706-40.294-90-90-90s-90,40.294-90,90
	c0,23.156,8.99,44.052,23.357,60H217.643z"/>
<circle style="fill:#FE9923;" cx="151" cy="196" r="60"/>
<circle style="fill:#FCBF29;" cx="151" cy="196" r="30"/>
<path style="fill:#FEA832;" d="M316,16c-90.901,0-165,74.099-165,165v75h330v-75C481,90.099,406.901,16,316,16z"/>
<path style="fill:#FEDB41;" d="M451,181v75H181v-75c0-74.7,60.3-135,135-135S451,106.3,451,181z"/>
<path style="fill:#FEA832;" d="M421,181v75H211v-75c0-57.9,47.1-105,105-105S421,123.1,421,181z"/>
<path style="fill:#FEDB41;" d="M391,181v75H241v-75c0-41.4,33.6-75,75-75S391,139.6,391,181z"/>
<path style="fill:#FEA832;" d="M361,181v75h-90v-75c0-24.901,20.099-45,45-45S361,156.099,361,181z"/>
<path style="fill:#FEDB41;" d="M331,181v75h-30v-75c0-8.401,6.599-15,15-15S331,172.599,331,181z"/>
<rect y="226" style="fill:#E5E5E5;" width="512" height="60"/>
<rect x="256" y="226" style="fill:#C8C6CD;" width="256" height="60"/>
<g>
</g>
<g>
</g>
<g>
</g>
<g>
</g>
<g>
</g>
<g>
</g>
<g>
</g>
<g>
</g>
<g>
</g>
<g>
</g>
<g>
</g>
<g>
</g>
<g>
</g>
<g>
</g>
<g>
</g>
</svg>
