<?xml version="1.0" encoding="iso-8859-1"?>
<!-- Generator: Adobe Illustrator 19.0.0, SVG Export Plug-In . SVG Version: 6.00 Build 0)  -->
<svg version="1.1" id="Capa_1" xmlns="http://www.w3.org/2000/svg" xmlns:xlink="http://www.w3.org/1999/xlink" x="0px" y="0px"
	 viewBox="0 0 512 512" style="enable-background:new 0 0 512 512;" xml:space="preserve">
<path style="fill:#CC4B4C;" d="M342.015,66.778l1.744,12.903l-93.021-24.477l5.572-9.574l0,0
	c4.672-18.933,23.808-30.495,42.741-25.823l17.141,4.23C335.126,28.709,346.687,47.844,342.015,66.778L342.015,66.778z"/>
<path style="fill:#802F34;" d="M44.138,194.207C19.761,194.207,0,213.968,0,238.345v4.683c0,30.493,13.963,59.307,37.896,78.202
	l18.011,14.219h400.185l18.011-14.219C498.037,302.334,512,273.52,512,243.027v-4.683c0-24.377-19.761-44.138-44.138-44.138l0,0"/>
<path style="fill:#CC4B4C;" d="M406.594,512H105.406c-19.662,0-36.041-15.071-37.674-34.665L44.138,194.207h423.724l-23.594,283.128
	C442.635,496.929,426.256,512,406.594,512L406.594,512z"/>
<path style="fill:#FB7B76;" d="M150.068,485.517h-30.711c-13.745-0.074-25.177-10.593-26.392-24.285l-6.004-72.082
	c-0.262-3.143,1.173-6.187,3.764-7.985c2.591-1.798,5.945-2.077,8.797-0.733c2.853,1.345,4.771,4.109,5.033,7.252l6.004,72.082
	c0.405,4.564,4.216,8.07,8.797,8.095h30.711c4.875,0,8.828,3.952,8.828,8.828S154.944,485.517,150.068,485.517L150.068,485.517z"/>
<path style="fill:#802F34;" d="M110.607,9.683l377.103,93.052c9.467,2.336,15.247,11.904,12.911,21.371l-2.115,8.571
	c-1.168,4.733-5.952,7.624-10.685,6.456L93.577,41.85c-4.733-1.168-7.624-5.952-6.456-10.685l2.115-8.571
	C91.572,13.127,101.14,7.347,110.607,9.683L110.607,9.683z"/>
<g>
	<circle style="fill:#FAC176;" cx="105.92" cy="97.1" r="17.655"/>
	<circle style="fill:#FAC176;" cx="52.952" cy="150.07" r="17.655"/>
	<circle style="fill:#FAC176;" cx="207.45" cy="119.17" r="22.07"/>
	<circle style="fill:#FAC176;" cx="22.07" cy="83.86" r="22.07"/>
	<circle style="fill:#FAC176;" cx="44.12" cy="17.655" r="17.655"/>
	<circle style="fill:#FAC176;" cx="141.23" cy="167.72" r="26.483"/>
	<path style="fill:#FAC176;" d="M183.726,194.207c15.539,0,28.135,12.596,28.136,28.135v32.588
		c-0.212,8.882,5.945,16.65,14.64,18.472c5.132,0.873,10.387-0.556,14.369-3.909c3.982-3.352,6.287-8.288,6.301-13.493v42.977
		c-0.245,12.9,8.575,24.209,21.146,27.114c7.795,1.577,15.886-0.423,22.049-5.45s9.748-12.551,9.77-20.504v-35.31
		c0.022,7.953,3.608,15.478,9.771,20.504c6.163,5.027,14.255,7.026,22.05,5.448c12.57-2.906,21.39-14.216,21.144-27.115v-69.458
		H183.726V194.207z"/>
</g>
<g>
</g>
<g>
</g>
<g>
</g>
<g>
</g>
<g>
</g>
<g>
</g>
<g>
</g>
<g>
</g>
<g>
</g>
<g>
</g>
<g>
</g>
<g>
</g>
<g>
</g>
<g>
</g>
<g>
</g>
</svg>
