<svg id="Capa_1" enable-background="new 0 0 512 512" height="512" viewBox="0 0 512 512" width="512" xmlns="http://www.w3.org/2000/svg"><g><path d="m388.246 60.575-32.872-26.294c-2.738-2.182-6.056-3.281-9.374-3.281l71.034 322.588c46.652-8.912 83.385-22.802 85.532-23.657 5.699-2.285 9.434-7.793 9.434-13.931 0-99.917-45.751-193.008-123.754-255.425z" fill="#ff9100"/><path d="m410.55 238.319c-15.088-83.027-58.96-193.242-60.82-197.886l-3.73-9.433c-3.305.007-6.647 1.108-9.376 3.281-3.013 2.411-35.884 28.705-32.87 26.294-78.003 62.417-122.754 155.508-122.754 255.425 0 6.138 3.735 11.646 9.434 13.931 3.164 1.259 78.559 31.069 155.566 31.069 13.881 0 27.539-1.188 40.9-2.783 10.43-1.245 20.469-2.783 30.134-4.629 1.132-36.599.19-78.602-6.484-115.269z" fill="#fed843"/><path d="m417.034 353.588c1.132-36.599.19-78.602-6.484-115.269-15.088-83.027-58.96-193.242-60.82-197.886l-3.73-9.433v330c13.881 0 27.539-1.188 40.9-2.783 10.43-1.245 20.47-2.783 30.134-4.629z" fill="#fabe2c"/><circle cx="346" cy="226" fill="#fabe2c" r="15"/><circle cx="316" cy="166" fill="#fabe2c" r="15"/><path d="m361 226c0 8.401-6.599 15-15 15v-30c8.401 0 15 6.599 15 15z" fill="#ff9100"/><path d="m208.246 180.575-32.872-26.294c-2.738-2.182-6.056-3.281-9.374-3.281l71.034 322.588c46.652-8.912 82.385-22.802 84.532-23.657 5.699-2.285 9.434-7.793 9.434-13.931 0-99.917-44.751-193.008-122.754-255.425z" fill="#ff9100"/><path d="m230.55 358.319c-15.088-83.027-58.96-193.242-60.82-197.886l-3.73-9.433c-3.305.007-6.647 1.108-9.376 3.281-3.013 2.411-35.884 28.705-32.87 26.294-78.003 62.417-123.754 155.508-123.754 255.425 0 6.138 3.735 11.646 9.434 13.931 3.164 1.259 79.559 31.069 156.566 31.069 13.881 0 27.539-1.188 40.9-2.783 10.43-1.245 20.469-2.783 30.134-4.629 1.132-36.599.19-78.602-6.484-115.269z" fill="#fed843"/><g fill="#fabe2c"><path d="m237.034 473.588c1.132-36.599.19-78.602-6.484-115.269-15.088-83.027-58.96-193.242-60.82-197.886l-3.73-9.433v330c13.881 0 27.539-1.188 40.9-2.783 10.43-1.245 20.47-2.783 30.134-4.629z"/><circle cx="76" cy="376" r="15"/><circle cx="136" cy="406" r="15"/><circle cx="166" cy="346" r="15"/><circle cx="136" cy="286" r="15"/></g><path d="m181 346c0 8.401-6.599 15-15 15v-30c8.401 0 15 6.599 15 15z" fill="#ff9100"/></g></svg>