<svg height="512" viewBox="0 0 58 58" width="512" xmlns="http://www.w3.org/2000/svg"><g id="001---Pretzel" fill="none" transform="translate(-1)"><path id="Shape" d="m54.37 43.35c2.63-4.75 4.63-11.75 4.63-20.35 0-20-11-23-15-23-5.3 0-10.34 1.37-14 5.27-2.63-2.94-7.24-5.27-14-5.27-4 0-15 3-15 23-.03934302 6.3625353 1.23738681 12.6644737 3.75 18.51.15.33.29.64.42.91.13540902.3088287.28901194.6093561.46.9-1.58818292 1.1431398-2.43367542 3.0560188-2.21 5 .36 2.84 3.58 4.68 7.58 2.68 10.970904 9.2692309 27.029096 9.2692309 38 0l-.27-.14c.39.19.78.38 1.16.54 2.75 1.15 6.26.06 6.66-3.09.2153259-1.9246305-.6164878-3.8171976-2.18-4.96zm-38.43-6.42c-.35-.71-5.94-7.77-5.94-15.93 0-8 4-11 7-11s8 1 8 13c0 5.45-4.33 10.28-9.06 13.93zm9.59 6.07c-.6350225-.2981966-1.2526751-.6320629-1.85-1 2.3436975-2.2102876 4.460864-4.6490491 6.32-7.28 1.847132 2.6557495 3.9615054 5.1152584 6.31 7.34-3.1835731 2.1716874-7.2685969 2.5278954-10.78.94zm19.31-7.25s-.74 1.09-.77 1.13c-4.45-3.37-9.07-8.25-9.07-13.88-.1128319-2.9944481.380364-5.9808342 1.45-8.78 1.0183321-2.6935399 3.6764073-4.40607075 6.55-4.22 6 0 11.29 11.15 1.84 25.79z" fill="#f29c1f"/><path id="Shape" d="m29.76 35.05c-.46.69-1 1.36-1.49 2z" fill="#e4c05c"/><path id="Shape" d="m29.43 4.7c-.16-.16-.32-.3-.48-.44z" fill="#f5efca"/><path id="Shape" d="m49 51c-.55.48-1.13.94-1.73 1.37-4.685437-2.5116697-8.9970913-5.6654715-12.81-9.37.6433413-.287967 1.2649692-.6221755 1.86-1 1.7245414 1.6356156 3.5551893 3.1555878 5.48 4.55 2.2618275 1.6960547 4.671522 3.1853798 7.2 4.45z" fill="#e57e25"/><path id="Shape" d="m15 48.82-.4.24z" fill="#e4c05c"/><path id="Shape" d="m26.8 2.67c.1759073.10059007.3461632.21075563.51.33z" fill="#f5efca"/><path id="Shape" d="m25.53 43c-3.8120431 3.7226203-8.1314975 6.8873025-12.83 9.4-.6-.4-1.18-.9-1.7-1.4 4.648487-2.3714207 8.9294841-5.4028112 12.71-9 .5875815.3669479 1.1951939.7008009 1.82 1z" fill="#e57e25"/><path id="Shape" d="m35.87 27.27c-.8278677 2.617328-1.9944232 5.1151687-3.47 7.43-.56.9-1 1.49-1.16 1.73-.43-.56-.84-1.13-1.24-1.71 2.9092004-4.019862 4.6406283-8.7709001 5-13.72.14 0 0-.23 0 2 .0134803 1.4659558.3088473 2.9156309.87 4.27z" fill="#e57e25"/><path id="Shape" d="m36.45 14.22c-.8834663 2.1535079-1.358224 4.4526917-1.4 6.78h-.05c.17-5.6-1-11.4-5-15.72.4549001-.48938206.9427025-.94711445 1.46-1.37.5643649.57591512 1.079499 1.19809006 1.54 1.86 1.7296368 2.54367549 2.9050674 5.4226287 3.45 8.45z" fill="#e57e25"/><g fill="#f5efca"><circle id="Oval" cx="6" cy="16" r="1"/><circle id="Oval" cx="8" cy="11" r="1"/><circle id="Oval" cx="10" cy="6" r="1"/><circle id="Oval" cx="14" cy="7" r="1"/><circle id="Oval" cx="17" cy="4" r="1"/><circle id="Oval" cx="30" cy="15" r="1"/><circle id="Oval" cx="21" cy="7" r="1"/><circle id="Oval" cx="54" cy="16" r="1"/><circle id="Oval" cx="52" cy="11" r="1"/><circle id="Oval" cx="50" cy="6" r="1"/><circle id="Oval" cx="46" cy="7" r="1"/><circle id="Oval" cx="43" cy="4" r="1"/><circle id="Oval" cx="39" cy="7" r="1"/><circle id="Oval" cx="27" cy="11" r="1"/><circle id="Oval" cx="29" cy="19" r="1"/><circle id="Oval" cx="26" cy="7" r="1"/></g><path id="Shape" d="m5.16 42.43c.23502537-.1569919.47874851-.3005548.73-.43l-.73.46z" fill="#b19046"/><path id="Shape" d="m15.29 36.14c-2.9395896 2.2328239-6.07579063 4.1942047-9.37 5.86z" fill="#b19046"/><path id="Shape" d="m15.93 36.91c-2.9984654 2.2852747-6.198273 4.2935221-9.56 6-.25465426.1308077-.4987266.2812633-.73.45-.13-.24-.28-.53-.46-.89-.13-.27-.27-.58-.42-.91 3.49092583-1.8085235 6.8345257-3.8882426 10-6.22h.07c.25.33.8 1.18 1.1 1.57z" fill="#b19046"/><path id="Shape" d="m14.82 35.25h-.07c-3.1603823 2.3392609-6.50459485 4.4193611-10 6.22.15.33.29.64.42.91.18.36.33.65.46.89.2312734-.1687367.47534574-.3191923.73-.45 3.361727-1.7064779 6.5615346-3.7147253 9.56-6-.29-.3-.83-1.15-1.1-1.57z" fill="#e57e25"/><path id="Shape" d="m45.17 35.27h.07c3.1603823 2.3392609 6.5045949 4.4193611 10 6.22-.15.33-.29.64-.42.91-.18.36-.33.65-.46.89-.2312734-.1687367-.4753457-.3191923-.73-.45-3.361727-1.7064779-6.5615346-3.7147253-9.56-6 .29-.31.83-1.15 1.1-1.57z" fill="#e57e25"/></g></svg>