<svg width="60" height="60" viewBox="0 0 60 60" fill="none" xmlns="http://www.w3.org/2000/svg">
<circle cx="30" cy="30" r="30" fill="url(#paint0_linear)"/>
<path d="M26.8068 36.98C26.8068 36.164 26.8968 35.366 27.0768 34.586C27.2688 33.794 27.5508 33.08 27.9228 32.444C28.1748 31.928 28.4388 31.514 28.7148 31.202C29.0028 30.89 29.4168 30.506 29.9568 30.05C30.0408 29.978 30.2628 29.786 30.6228 29.474C30.9828 29.15 31.3668 28.772 31.7748 28.34C32.2428 27.824 32.5608 27.314 32.7288 26.81C32.9088 26.294 32.9988 25.7 32.9988 25.028C32.9988 24.284 32.8428 23.708 32.5308 23.3C32.2548 22.916 31.8828 22.634 31.4148 22.454C30.9588 22.274 30.4428 22.184 29.8668 22.184C29.4348 22.184 29.0268 22.238 28.6428 22.346C28.2588 22.442 27.9348 22.592 27.6708 22.796C27.3348 23.048 27.0828 23.366 26.9148 23.75C26.7468 24.134 26.6748 24.56 26.6988 25.028H21.5148C21.6588 23.732 22.0248 22.556 22.6128 21.5C23.2128 20.432 23.9748 19.592 24.8988 18.98C25.5828 18.536 26.3388 18.194 27.1668 17.954C27.9948 17.702 28.8228 17.576 29.6508 17.576C31.0908 17.576 32.4048 17.798 33.5928 18.242C34.7928 18.686 35.7708 19.376 36.5268 20.312C37.0428 20.924 37.4448 21.638 37.7328 22.454C38.0328 23.258 38.1828 24.068 38.1828 24.884C38.1828 26.108 37.9128 27.254 37.3728 28.322C36.8328 29.378 36.0828 30.416 35.1228 31.436L34.2048 32.39C33.9048 32.69 33.6228 32.99 33.3588 33.29C33.0948 33.578 32.8788 33.848 32.7108 34.1C32.3868 34.628 32.1828 35.066 32.0988 35.414C32.0268 35.75 31.9908 36.272 31.9908 36.98H26.8068ZM31.9908 44H26.8428V38.816H31.9908V44Z" fill="white"/>
<defs>
<linearGradient id="paint0_linear" x1="0" y1="0" x2="60" y2="60" gradientUnits="userSpaceOnUse">
<stop stop-color="#D8DBEB"/>
<stop offset="1" stop-color="#86899A"/>
</linearGradient>
</defs>
</svg>
