<svg width="23" height="25" viewBox="0 0 23 25" fill="none" xmlns="http://www.w3.org/2000/svg">
<path d="M12 12.4999C12 13.0449 12.4477 13.4866 13 13.4866C13.5523 13.4866 14 13.0449 14 12.4999C14 11.955 13.5523 11.5133 13 11.5133C12.4477 11.5133 12 11.955 12 12.4999Z" fill="#898EA6"/>
<path fill-rule="evenodd" clip-rule="evenodd" d="M7.52411 23.8905C0.873965 21.8794 0 21.6151 0 12.5C0 3.38479 0.873982 3.12049 7.5243 1.10935C7.98758 0.969255 8.47901 0.820641 9 0.660006C13.3861 -0.692352 15.6681 0.0663593 16.8347 2.63469C18.0687 2.64545 19.1147 2.72129 19.9629 2.96842C20.948 3.25545 21.7008 3.78415 22.1911 4.67411C22.6425 5.49349 22.8237 6.53937 22.9116 7.76176C23 8.99243 23 10.5459 23 12.4555V12.5303C23 14.44 23 15.9944 22.9116 17.2263C22.8237 18.4501 22.6425 19.4971 22.1916 20.3178C21.7021 21.2089 20.9501 21.74 19.9644 22.0288C19.1157 22.2776 18.0693 22.3543 16.8348 22.3652C15.6682 24.9336 13.3862 25.6924 9 24.34C8.47906 24.1793 7.98734 24.0306 7.52411 23.8905ZM2.25703 17.8103C2.06501 16.6039 2 14.9376 2 12.5C2 10.0624 2.06501 8.39605 2.25703 7.18963C2.44491 6.00929 2.72625 5.4679 3.01582 5.13596C3.32119 4.78591 3.83133 4.44201 4.93858 4.02057C5.76865 3.70462 6.75936 3.40496 8.04303 3.0167C8.51844 2.8729 9.03404 2.71695 9.59654 2.54351C11.4623 1.96825 12.6537 1.89297 13.4014 2.03568C14.0291 2.15551 14.4351 2.4403 14.7863 3.01614C15.1962 3.68808 15.5272 4.76933 15.7336 6.42997C15.9369 8.0649 16 10.0787 16 12.5C16 14.9213 15.9369 16.9351 15.7336 18.57C15.5272 20.2307 15.1962 21.3119 14.7863 21.9839C14.4351 22.5597 14.0291 22.8445 13.4014 22.9643C12.6537 23.107 11.4623 23.0317 9.59656 22.4565C9.03401 22.283 8.51838 22.127 8.04293 21.9832C6.75936 21.595 5.76863 21.2953 4.93859 20.9794C3.83132 20.5579 3.32119 20.214 3.01582 19.864C2.72625 19.532 2.44491 18.9907 2.25703 17.8103ZM17.4602 20.3783C18.3118 20.3486 18.9313 20.2731 19.395 20.1372C19.9561 19.9727 20.2354 19.7377 20.4334 19.3774C20.67 18.9467 20.8325 18.2572 20.9166 17.0869C20.9994 15.9328 21 14.4477 21 12.493C21 10.5382 20.9994 9.05409 20.9166 7.90134C20.8325 6.73225 20.67 6.04505 20.4339 5.61655C20.2367 5.25863 19.9583 5.02464 19.3965 4.86095C18.9323 4.72572 18.3123 4.65083 17.4602 4.62142C17.8915 6.64059 18 9.28856 18 12.5C18 15.7113 17.8915 18.3591 17.4602 20.3783Z" fill="#898EA6"/>
</svg>
