<svg width="24" height="30" viewBox="0 0 24 30" fill="none" xmlns="http://www.w3.org/2000/svg">
<path fill-rule="evenodd" clip-rule="evenodd" d="M13.1984 1.88954C13.1995 1.86837 13.2 1.84707 13.2 1.82563C13.2 1.14879 12.6627 0.600098 12 0.600098C11.3373 0.600098 10.8 1.14879 10.8 1.82563C10.8 1.84708 10.8005 1.8684 10.8016 1.88958C6.78442 2.48118 3.00443 7.09721 3.60006 12.2474C3.90855 13.8234 2.93722 14.6583 1.92621 15.5274C0.970865 16.3486 -0.0198983 17.2003 0.000303825 18.7364C0.000303825 20.8894 1.20001 22.0561 2.96196 22.6347C2.96196 22.6347 6.18887 23.8952 12.0001 23.8952C17.8114 23.8952 21.0383 22.6347 21.0383 22.6347C22.8003 22.0561 24.0003 20.83 24 18.7364C23.9998 17.187 23.0096 16.3351 22.0596 15.5176C21.0531 14.6516 20.0916 13.8243 20.4002 12.2474C20.9959 7.09708 17.2157 2.48095 13.1984 1.88954ZM5.57967 11.9534C5.80147 13.1981 5.53811 14.2696 4.98545 15.1625C4.49441 15.9558 3.79734 16.5557 3.3379 16.9512L3.33788 16.9512L3.31452 16.9713C2.20204 17.9292 1.99343 18.2007 2.00013 18.7101L2.0003 18.7232V18.7364C2.0003 19.4169 2.17951 19.7796 2.36573 20.0063C2.57455 20.2605 2.94362 20.5236 3.58596 20.7345L3.63832 20.7517L3.68118 20.7685L3.68171 20.7687L3.68284 20.7691L3.6831 20.7692L3.69117 20.7722C3.70396 20.7769 3.72899 20.786 3.7661 20.7988C3.84033 20.8245 3.96286 20.8653 4.13245 20.9162C4.47164 21.0181 4.99894 21.1609 5.70449 21.3059C7.11527 21.5959 9.23973 21.8952 12.0001 21.8952C14.7606 21.8952 16.885 21.5959 18.2958 21.3059C19.0014 21.1609 19.5287 21.0181 19.8679 20.9162C20.0374 20.8653 20.16 20.8245 20.2342 20.7988C20.2713 20.786 20.2963 20.7769 20.3091 20.7722L20.3172 20.7692L20.3174 20.7691L20.319 20.7685L20.3191 20.7685L20.362 20.7517L20.4143 20.7345C21.0339 20.531 21.4094 20.2613 21.6275 19.9928C21.8267 19.7475 22.0001 19.3767 22 18.7366C21.9999 18.1911 21.7673 17.9061 20.6693 16.9597L20.6463 16.94C20.1892 16.5461 19.4945 15.9475 19.0061 15.1538C18.4564 14.2603 18.1998 13.192 18.4206 11.9533C18.6492 9.81251 17.9182 7.75969 16.6746 6.22835C15.3964 4.65453 13.7484 3.82568 12.3374 3.82568H11.6629C10.2519 3.82568 8.60389 4.65453 7.32575 6.22835C6.08211 7.75971 5.35111 9.81255 5.57967 11.9534ZM7.84003 25.5388C7.40298 25.8737 7.3144 26.5072 7.64219 26.9537C9.83745 29.9444 14.228 29.9444 16.4232 26.9537C16.751 26.5072 16.6625 25.8737 16.2254 25.5388C15.7884 25.2039 15.1683 25.2944 14.8405 25.7409C13.4366 27.6535 10.6288 27.6535 9.2249 25.7409C8.89711 25.2944 8.27708 25.2039 7.84003 25.5388Z" fill="#E2E5F1"/>
</svg>
