<svg width="24" height="24" viewBox="0 0 24 24" fill="none" xmlns="http://www.w3.org/2000/svg">
<path d="M16 12C16 11.4477 16.4477 11 17 11H19C19.5523 11 20 11.4477 20 12C20 12.5523 19.5523 13 19 13H17C16.4477 13 16 12.5523 16 12Z" fill="#898EA6"/>
<path fill-rule="evenodd" clip-rule="evenodd" d="M12 24C2.11801 24 0 21.882 0 12C0 2.11801 2.11801 0 12 0C21.882 0 24 2.11801 24 12C24 21.882 21.882 24 12 24ZM2.43771 17.6101C2.13254 16.2369 2 14.4249 2 12C2 9.57513 2.13254 7.76306 2.43771 6.38992C2.73782 5.03949 3.17767 4.23926 3.70847 3.70847C4.23926 3.17767 5.03949 2.73782 6.38992 2.43771C7.76306 2.13254 9.57513 2 12 2C14.4249 2 16.2369 2.13254 17.6101 2.43771C18.9605 2.73782 19.7607 3.17767 20.2915 3.70847C20.8223 4.23926 21.2622 5.03949 21.5623 6.38992C21.6055 6.58432 21.6452 6.78751 21.6816 7H17C16.3434 7 15.6932 7.12933 15.0866 7.38062C14.4799 7.63187 13.9288 8.00018 13.4645 8.46448C13.0002 8.92877 12.6319 9.47995 12.3806 10.0866C12.1293 10.6932 12 11.3434 12 12C12 12.6566 12.1293 13.3068 12.3806 13.9134C12.6319 14.5201 13.0002 15.0712 13.4645 15.5355C13.9288 15.9998 14.4799 16.3681 15.0866 16.6194C15.6932 16.8707 16.3434 17 17 17H21.6816C21.6452 17.2125 21.6055 17.4157 21.5623 17.6101C21.2622 18.9605 20.8223 19.7607 20.2915 20.2915C19.7607 20.8223 18.9605 21.2622 17.6101 21.5623C16.2369 21.8675 14.4249 22 12 22C9.57513 22 7.76306 21.8675 6.38992 21.5623C5.03949 21.2622 4.23926 20.8223 3.70847 20.2915C3.17767 19.7607 2.73782 18.9605 2.43771 17.6101ZM21.9102 15C21.9714 14.1206 22 13.1264 22 12C22 10.8736 21.9714 9.87939 21.9102 9H17C16.606 9 16.2159 9.07761 15.852 9.22836C15.488 9.37912 15.1573 9.6001 14.8787 9.87869C14.6001 10.1573 14.3791 10.488 14.2284 10.852C14.0776 11.2159 14 11.606 14 12C14 12.394 14.0776 12.7841 14.2284 13.148C14.3791 13.512 14.6001 13.8427 14.8787 14.1213C15.1573 14.3999 15.488 14.6209 15.852 14.7716C16.2159 14.9224 16.606 15 17 15H21.9102Z" fill="#898EA6"/>
</svg>
