<svg width="146" height="146" viewBox="0 0 146 146" fill="none" xmlns="http://www.w3.org/2000/svg">
<circle cx="73" cy="73" r="73" fill="url(#paint0_linear)"/>
<path d="M65.23 90.5176C65.23 88.532 65.449 86.5902 65.887 84.6922C66.3542 82.765 67.0404 81.0276 67.9456 79.48C68.5588 78.2244 69.2012 77.217 69.8728 76.4578C70.5736 75.6986 71.5811 74.7642 72.895 73.6546C73.0994 73.4794 73.6396 73.0122 74.5156 72.253C75.3917 71.4646 76.3261 70.5448 77.3188 69.4936C78.4577 68.238 79.2315 66.997 79.6403 65.7706C80.0783 64.515 80.2973 63.0696 80.2973 61.4344C80.2973 59.624 79.9177 58.2224 79.1584 57.2296C78.4868 56.2952 77.5816 55.609 76.4429 55.171C75.3333 54.733 74.0777 54.514 72.676 54.514C71.6248 54.514 70.632 54.6454 69.6976 54.9082C68.7632 55.1418 67.9748 55.5068 67.3324 56.0032C66.5148 56.6164 65.9016 57.3902 65.4928 58.3246C65.084 59.259 64.9088 60.2956 64.9672 61.4344H52.3528C52.7032 58.2808 53.5938 55.4192 55.0246 52.8496C56.4846 50.2508 58.3388 48.2068 60.5872 46.7176C62.2516 45.6372 64.0912 44.805 66.106 44.221C68.1208 43.6078 70.1356 43.3012 72.1505 43.3012C75.6545 43.3012 78.8519 43.8414 81.7427 44.9218C84.6627 46.0022 87.0425 47.6812 88.8821 49.9588C90.1377 51.448 91.1159 53.1854 91.8167 55.171C92.5467 57.1274 92.9117 59.0984 92.9117 61.084C92.9117 64.0624 92.2547 66.851 90.9407 69.4498C89.6267 72.0194 87.8017 74.5452 85.4657 77.0272L83.2319 79.3486C82.5019 80.0786 81.8157 80.8086 81.1733 81.5386C80.5309 82.2394 80.0053 82.8964 79.5965 83.5096C78.8081 84.7944 78.3117 85.8602 78.1073 86.707C77.9321 87.5246 77.8445 88.7948 77.8445 90.5176H65.23ZM77.8445 107.6H65.3176V94.9852H77.8445V107.6Z" fill="white"/>
<defs>
<linearGradient id="paint0_linear" x1="0" y1="0" x2="146" y2="146" gradientUnits="userSpaceOnUse">
<stop stop-color="#D8DBEB"/>
<stop offset="1" stop-color="#86899A"/>
</linearGradient>
</defs>
</svg>
